<mxfile host="app.diagrams.net" modified="2022-05-13T01:03:01.554Z" agent="5.0 (X11; Linux x86_64) AppleWebKit/537.36 (KHTML, like Gecko) Chrome/102.0.5005.27 Safari/537.36 Edg/102.0.1245.7" etag="PcgS6L8mhmSNq1g1ov5W" version="18.0.3" type="github">
  <diagram id="rOARRvPexbEh7EPUtntv" name="Page-1">
    <mxGraphModel dx="824" dy="518" grid="1" gridSize="10" guides="1" tooltips="1" connect="1" arrows="1" fold="1" page="1" pageScale="1" pageWidth="850" pageHeight="1100" math="0" shadow="0">
      <root>
        <mxCell id="0" />
        <mxCell id="1" parent="0" />
        <mxCell id="JQFdDf_bqG2a4VbHYj4t-58" style="edgeStyle=orthogonalEdgeStyle;rounded=1;orthogonalLoop=1;jettySize=auto;html=1;exitX=1;exitY=0.5;exitDx=0;exitDy=0;entryX=0;entryY=0.5;entryDx=0;entryDy=0;endArrow=none;endFill=0;sketch=1;" edge="1" parent="1" source="JQFdDf_bqG2a4VbHYj4t-1" target="JQFdDf_bqG2a4VbHYj4t-57">
          <mxGeometry relative="1" as="geometry" />
        </mxCell>
        <mxCell id="JQFdDf_bqG2a4VbHYj4t-1" value="Library" style="rounded=1;whiteSpace=wrap;html=1;sketch=1;" vertex="1" parent="1">
          <mxGeometry x="200" y="270" width="70" height="30" as="geometry" />
        </mxCell>
        <mxCell id="JQFdDf_bqG2a4VbHYj4t-61" style="edgeStyle=orthogonalEdgeStyle;rounded=1;orthogonalLoop=1;jettySize=auto;html=1;entryX=0;entryY=0.5;entryDx=0;entryDy=0;endArrow=none;endFill=0;sketch=1;" edge="1" parent="1" source="JQFdDf_bqG2a4VbHYj4t-2" target="JQFdDf_bqG2a4VbHYj4t-60">
          <mxGeometry relative="1" as="geometry">
            <Array as="points">
              <mxPoint x="415" y="350" />
            </Array>
          </mxGeometry>
        </mxCell>
        <mxCell id="JQFdDf_bqG2a4VbHYj4t-2" value="Books" style="rounded=1;whiteSpace=wrap;html=1;sketch=1;" vertex="1" parent="1">
          <mxGeometry x="380" y="270" width="70" height="30" as="geometry" />
        </mxCell>
        <mxCell id="JQFdDf_bqG2a4VbHYj4t-3" value="Reader" style="rounded=1;whiteSpace=wrap;html=1;sketch=1;" vertex="1" parent="1">
          <mxGeometry x="580" y="410" width="70" height="30" as="geometry" />
        </mxCell>
        <mxCell id="JQFdDf_bqG2a4VbHYj4t-9" style="edgeStyle=orthogonalEdgeStyle;rounded=1;orthogonalLoop=1;jettySize=auto;html=1;exitX=1;exitY=0.5;exitDx=0;exitDy=0;entryX=0.5;entryY=0;entryDx=0;entryDy=0;endArrow=none;endFill=0;sketch=1;" edge="1" parent="1" source="JQFdDf_bqG2a4VbHYj4t-4" target="JQFdDf_bqG2a4VbHYj4t-1">
          <mxGeometry relative="1" as="geometry" />
        </mxCell>
        <mxCell id="JQFdDf_bqG2a4VbHYj4t-4" value="library_id" style="ellipse;whiteSpace=wrap;html=1;sketch=1;rounded=1;" vertex="1" parent="1">
          <mxGeometry x="70" y="180" width="80" height="40" as="geometry" />
        </mxCell>
        <mxCell id="JQFdDf_bqG2a4VbHYj4t-10" style="edgeStyle=orthogonalEdgeStyle;rounded=1;orthogonalLoop=1;jettySize=auto;html=1;entryX=0.25;entryY=0;entryDx=0;entryDy=0;endArrow=none;endFill=0;sketch=1;" edge="1" parent="1" source="JQFdDf_bqG2a4VbHYj4t-5" target="JQFdDf_bqG2a4VbHYj4t-1">
          <mxGeometry relative="1" as="geometry" />
        </mxCell>
        <mxCell id="JQFdDf_bqG2a4VbHYj4t-5" value="company" style="ellipse;whiteSpace=wrap;html=1;sketch=1;rounded=1;" vertex="1" parent="1">
          <mxGeometry x="70" y="230" width="80" height="40" as="geometry" />
        </mxCell>
        <mxCell id="JQFdDf_bqG2a4VbHYj4t-11" style="edgeStyle=orthogonalEdgeStyle;rounded=1;orthogonalLoop=1;jettySize=auto;html=1;entryX=0;entryY=0.5;entryDx=0;entryDy=0;endArrow=none;endFill=0;sketch=1;" edge="1" parent="1" source="JQFdDf_bqG2a4VbHYj4t-6" target="JQFdDf_bqG2a4VbHYj4t-1">
          <mxGeometry relative="1" as="geometry" />
        </mxCell>
        <mxCell id="JQFdDf_bqG2a4VbHYj4t-6" value="address" style="ellipse;whiteSpace=wrap;html=1;sketch=1;rounded=1;" vertex="1" parent="1">
          <mxGeometry x="70" y="280" width="80" height="40" as="geometry" />
        </mxCell>
        <mxCell id="JQFdDf_bqG2a4VbHYj4t-12" style="edgeStyle=orthogonalEdgeStyle;rounded=1;orthogonalLoop=1;jettySize=auto;html=1;entryX=0.25;entryY=1;entryDx=0;entryDy=0;endArrow=none;endFill=0;sketch=1;" edge="1" parent="1" source="JQFdDf_bqG2a4VbHYj4t-7" target="JQFdDf_bqG2a4VbHYj4t-1">
          <mxGeometry relative="1" as="geometry" />
        </mxCell>
        <mxCell id="JQFdDf_bqG2a4VbHYj4t-7" value="phone" style="ellipse;whiteSpace=wrap;html=1;sketch=1;rounded=1;" vertex="1" parent="1">
          <mxGeometry x="70" y="330" width="80" height="40" as="geometry" />
        </mxCell>
        <mxCell id="JQFdDf_bqG2a4VbHYj4t-13" style="edgeStyle=orthogonalEdgeStyle;rounded=1;orthogonalLoop=1;jettySize=auto;html=1;entryX=0.5;entryY=1;entryDx=0;entryDy=0;endArrow=none;endFill=0;sketch=1;" edge="1" parent="1" source="JQFdDf_bqG2a4VbHYj4t-8" target="JQFdDf_bqG2a4VbHYj4t-1">
          <mxGeometry relative="1" as="geometry" />
        </mxCell>
        <mxCell id="JQFdDf_bqG2a4VbHYj4t-8" value="email" style="ellipse;whiteSpace=wrap;html=1;sketch=1;rounded=1;" vertex="1" parent="1">
          <mxGeometry x="70" y="380" width="80" height="40" as="geometry" />
        </mxCell>
        <mxCell id="JQFdDf_bqG2a4VbHYj4t-39" style="edgeStyle=orthogonalEdgeStyle;rounded=1;orthogonalLoop=1;jettySize=auto;html=1;entryX=0.5;entryY=1;entryDx=0;entryDy=0;endArrow=none;endFill=0;sketch=1;" edge="1" parent="1" source="JQFdDf_bqG2a4VbHYj4t-14" target="JQFdDf_bqG2a4VbHYj4t-3">
          <mxGeometry relative="1" as="geometry">
            <Array as="points">
              <mxPoint x="550" y="510" />
              <mxPoint x="615" y="510" />
            </Array>
          </mxGeometry>
        </mxCell>
        <mxCell id="JQFdDf_bqG2a4VbHYj4t-14" value="phone" style="ellipse;whiteSpace=wrap;html=1;sketch=1;rounded=1;" vertex="1" parent="1">
          <mxGeometry x="510" y="560" width="80" height="40" as="geometry" />
        </mxCell>
        <mxCell id="JQFdDf_bqG2a4VbHYj4t-41" style="edgeStyle=orthogonalEdgeStyle;rounded=1;orthogonalLoop=1;jettySize=auto;html=1;entryX=1;entryY=0.75;entryDx=0;entryDy=0;endArrow=none;endFill=0;sketch=1;" edge="1" parent="1" source="JQFdDf_bqG2a4VbHYj4t-15" target="JQFdDf_bqG2a4VbHYj4t-3">
          <mxGeometry relative="1" as="geometry" />
        </mxCell>
        <mxCell id="JQFdDf_bqG2a4VbHYj4t-15" value="last_name" style="ellipse;whiteSpace=wrap;html=1;sketch=1;rounded=1;" vertex="1" parent="1">
          <mxGeometry x="700" y="550" width="80" height="40" as="geometry" />
        </mxCell>
        <mxCell id="JQFdDf_bqG2a4VbHYj4t-40" style="edgeStyle=orthogonalEdgeStyle;rounded=1;orthogonalLoop=1;jettySize=auto;html=1;entryX=0.75;entryY=1;entryDx=0;entryDy=0;endArrow=none;endFill=0;sketch=1;" edge="1" parent="1" source="JQFdDf_bqG2a4VbHYj4t-17" target="JQFdDf_bqG2a4VbHYj4t-3">
          <mxGeometry relative="1" as="geometry" />
        </mxCell>
        <mxCell id="JQFdDf_bqG2a4VbHYj4t-17" value="address" style="ellipse;whiteSpace=wrap;html=1;sketch=1;rounded=1;" vertex="1" parent="1">
          <mxGeometry x="600" y="570" width="80" height="40" as="geometry" />
        </mxCell>
        <mxCell id="JQFdDf_bqG2a4VbHYj4t-42" style="edgeStyle=orthogonalEdgeStyle;rounded=1;orthogonalLoop=1;jettySize=auto;html=1;entryX=1;entryY=0.5;entryDx=0;entryDy=0;endArrow=none;endFill=0;sketch=1;" edge="1" parent="1" source="JQFdDf_bqG2a4VbHYj4t-18" target="JQFdDf_bqG2a4VbHYj4t-3">
          <mxGeometry relative="1" as="geometry" />
        </mxCell>
        <mxCell id="JQFdDf_bqG2a4VbHYj4t-18" value="first_name" style="ellipse;whiteSpace=wrap;html=1;sketch=1;rounded=1;" vertex="1" parent="1">
          <mxGeometry x="740" y="470" width="80" height="40" as="geometry" />
        </mxCell>
        <mxCell id="JQFdDf_bqG2a4VbHYj4t-36" style="edgeStyle=orthogonalEdgeStyle;rounded=1;orthogonalLoop=1;jettySize=auto;html=1;entryX=0;entryY=0.5;entryDx=0;entryDy=0;endArrow=none;endFill=0;sketch=1;" edge="1" parent="1" source="JQFdDf_bqG2a4VbHYj4t-19" target="JQFdDf_bqG2a4VbHYj4t-3">
          <mxGeometry relative="1" as="geometry">
            <Array as="points">
              <mxPoint x="523" y="410" />
              <mxPoint x="523" y="420" />
              <mxPoint x="580" y="420" />
            </Array>
          </mxGeometry>
        </mxCell>
        <mxCell id="JQFdDf_bqG2a4VbHYj4t-19" value="readers_id" style="ellipse;whiteSpace=wrap;html=1;sketch=1;rounded=1;" vertex="1" parent="1">
          <mxGeometry x="385" y="390" width="80" height="40" as="geometry" />
        </mxCell>
        <mxCell id="JQFdDf_bqG2a4VbHYj4t-37" style="edgeStyle=orthogonalEdgeStyle;rounded=1;orthogonalLoop=1;jettySize=auto;html=1;entryX=0;entryY=0.75;entryDx=0;entryDy=0;endArrow=none;endFill=0;sketch=1;" edge="1" parent="1" source="JQFdDf_bqG2a4VbHYj4t-20" target="JQFdDf_bqG2a4VbHYj4t-3">
          <mxGeometry relative="1" as="geometry" />
        </mxCell>
        <mxCell id="JQFdDf_bqG2a4VbHYj4t-20" value="nui" style="ellipse;whiteSpace=wrap;html=1;sketch=1;rounded=1;" vertex="1" parent="1">
          <mxGeometry x="385" y="450" width="80" height="40" as="geometry" />
        </mxCell>
        <mxCell id="JQFdDf_bqG2a4VbHYj4t-38" style="edgeStyle=orthogonalEdgeStyle;rounded=1;orthogonalLoop=1;jettySize=auto;html=1;entryX=0.143;entryY=1;entryDx=0;entryDy=0;entryPerimeter=0;endArrow=none;endFill=0;sketch=1;" edge="1" parent="1" source="JQFdDf_bqG2a4VbHYj4t-21" target="JQFdDf_bqG2a4VbHYj4t-3">
          <mxGeometry relative="1" as="geometry">
            <Array as="points">
              <mxPoint x="450" y="500" />
              <mxPoint x="590" y="500" />
            </Array>
          </mxGeometry>
        </mxCell>
        <mxCell id="JQFdDf_bqG2a4VbHYj4t-21" value="email" style="ellipse;whiteSpace=wrap;html=1;sketch=1;rounded=1;" vertex="1" parent="1">
          <mxGeometry x="410" y="530" width="80" height="40" as="geometry" />
        </mxCell>
        <mxCell id="JQFdDf_bqG2a4VbHYj4t-47" style="edgeStyle=orthogonalEdgeStyle;rounded=1;orthogonalLoop=1;jettySize=auto;html=1;entryX=0.098;entryY=0.001;entryDx=0;entryDy=0;entryPerimeter=0;endArrow=none;endFill=0;sketch=1;" edge="1" parent="1" source="JQFdDf_bqG2a4VbHYj4t-29" target="JQFdDf_bqG2a4VbHYj4t-2">
          <mxGeometry relative="1" as="geometry">
            <Array as="points">
              <mxPoint x="290" y="220" />
              <mxPoint x="387" y="220" />
            </Array>
          </mxGeometry>
        </mxCell>
        <mxCell id="JQFdDf_bqG2a4VbHYj4t-29" value="book_id" style="ellipse;whiteSpace=wrap;html=1;sketch=1;rounded=1;" vertex="1" parent="1">
          <mxGeometry x="250" y="110" width="80" height="40" as="geometry" />
        </mxCell>
        <mxCell id="JQFdDf_bqG2a4VbHYj4t-48" style="edgeStyle=orthogonalEdgeStyle;rounded=1;orthogonalLoop=1;jettySize=auto;html=1;endArrow=none;endFill=0;entryX=0.25;entryY=0;entryDx=0;entryDy=0;sketch=1;" edge="1" parent="1" source="JQFdDf_bqG2a4VbHYj4t-30" target="JQFdDf_bqG2a4VbHYj4t-2">
          <mxGeometry relative="1" as="geometry">
            <mxPoint x="400" y="240" as="targetPoint" />
          </mxGeometry>
        </mxCell>
        <mxCell id="JQFdDf_bqG2a4VbHYj4t-30" value="name" style="ellipse;whiteSpace=wrap;html=1;sketch=1;rounded=1;" vertex="1" parent="1">
          <mxGeometry x="330" y="90" width="80" height="40" as="geometry" />
        </mxCell>
        <mxCell id="JQFdDf_bqG2a4VbHYj4t-49" style="edgeStyle=orthogonalEdgeStyle;rounded=1;orthogonalLoop=1;jettySize=auto;html=1;entryX=0.429;entryY=0;entryDx=0;entryDy=0;endArrow=none;endFill=0;entryPerimeter=0;sketch=1;" edge="1" parent="1" source="JQFdDf_bqG2a4VbHYj4t-31" target="JQFdDf_bqG2a4VbHYj4t-2">
          <mxGeometry relative="1" as="geometry">
            <Array as="points">
              <mxPoint x="460" y="170" />
              <mxPoint x="410" y="170" />
            </Array>
          </mxGeometry>
        </mxCell>
        <mxCell id="JQFdDf_bqG2a4VbHYj4t-31" value="num_of_copy" style="ellipse;whiteSpace=wrap;html=1;sketch=1;rounded=1;" vertex="1" parent="1">
          <mxGeometry x="420" y="90" width="80" height="40" as="geometry" />
        </mxCell>
        <mxCell id="JQFdDf_bqG2a4VbHYj4t-56" style="edgeStyle=orthogonalEdgeStyle;rounded=1;orthogonalLoop=1;jettySize=auto;html=1;entryX=0.714;entryY=0;entryDx=0;entryDy=0;entryPerimeter=0;endArrow=none;endFill=0;sketch=1;" edge="1" parent="1" source="JQFdDf_bqG2a4VbHYj4t-32" target="JQFdDf_bqG2a4VbHYj4t-2">
          <mxGeometry relative="1" as="geometry">
            <Array as="points">
              <mxPoint x="550" y="190" />
              <mxPoint x="430" y="190" />
            </Array>
          </mxGeometry>
        </mxCell>
        <mxCell id="JQFdDf_bqG2a4VbHYj4t-32" value="languaje" style="ellipse;whiteSpace=wrap;html=1;sketch=1;rounded=1;" vertex="1" parent="1">
          <mxGeometry x="510" y="110" width="80" height="40" as="geometry" />
        </mxCell>
        <mxCell id="JQFdDf_bqG2a4VbHYj4t-52" style="edgeStyle=orthogonalEdgeStyle;rounded=1;orthogonalLoop=1;jettySize=auto;html=1;entryX=1;entryY=0.75;entryDx=0;entryDy=0;endArrow=none;endFill=0;sketch=1;" edge="1" parent="1" source="JQFdDf_bqG2a4VbHYj4t-33" target="JQFdDf_bqG2a4VbHYj4t-2">
          <mxGeometry relative="1" as="geometry">
            <Array as="points">
              <mxPoint x="620" y="200" />
              <mxPoint x="515" y="200" />
              <mxPoint x="515" y="270" />
              <mxPoint x="450" y="270" />
            </Array>
          </mxGeometry>
        </mxCell>
        <mxCell id="JQFdDf_bqG2a4VbHYj4t-33" value="topic" style="ellipse;whiteSpace=wrap;html=1;sketch=1;rounded=1;" vertex="1" parent="1">
          <mxGeometry x="580" y="150" width="80" height="40" as="geometry" />
        </mxCell>
        <mxCell id="JQFdDf_bqG2a4VbHYj4t-34" style="edgeStyle=orthogonalEdgeStyle;rounded=1;orthogonalLoop=1;jettySize=auto;html=1;exitX=0.5;exitY=1;exitDx=0;exitDy=0;endArrow=none;endFill=0;sketch=1;" edge="1" parent="1" source="JQFdDf_bqG2a4VbHYj4t-21" target="JQFdDf_bqG2a4VbHYj4t-21">
          <mxGeometry relative="1" as="geometry" />
        </mxCell>
        <mxCell id="JQFdDf_bqG2a4VbHYj4t-54" style="edgeStyle=orthogonalEdgeStyle;rounded=1;orthogonalLoop=1;jettySize=auto;html=1;entryX=1;entryY=0.75;entryDx=0;entryDy=0;endArrow=none;endFill=0;sketch=1;" edge="1" parent="1" source="JQFdDf_bqG2a4VbHYj4t-35" target="JQFdDf_bqG2a4VbHYj4t-2">
          <mxGeometry relative="1" as="geometry">
            <Array as="points">
              <mxPoint x="545" y="220" />
              <mxPoint x="545" y="285" />
              <mxPoint x="450" y="285" />
            </Array>
          </mxGeometry>
        </mxCell>
        <mxCell id="JQFdDf_bqG2a4VbHYj4t-35" value="subtopic" style="ellipse;whiteSpace=wrap;html=1;sketch=1;rounded=1;" vertex="1" parent="1">
          <mxGeometry x="640" y="190" width="80" height="40" as="geometry" />
        </mxCell>
        <mxCell id="JQFdDf_bqG2a4VbHYj4t-55" style="edgeStyle=orthogonalEdgeStyle;rounded=1;orthogonalLoop=1;jettySize=auto;html=1;entryX=1.004;entryY=0.948;entryDx=0;entryDy=0;endArrow=none;endFill=0;entryPerimeter=0;sketch=1;" edge="1" parent="1" source="JQFdDf_bqG2a4VbHYj4t-44" target="JQFdDf_bqG2a4VbHYj4t-2">
          <mxGeometry relative="1" as="geometry">
            <Array as="points">
              <mxPoint x="560" y="260" />
              <mxPoint x="560" y="298" />
            </Array>
          </mxGeometry>
        </mxCell>
        <mxCell id="JQFdDf_bqG2a4VbHYj4t-44" value="author" style="ellipse;whiteSpace=wrap;html=1;sketch=1;rounded=1;" vertex="1" parent="1">
          <mxGeometry x="670" y="230" width="80" height="40" as="geometry" />
        </mxCell>
        <mxCell id="JQFdDf_bqG2a4VbHYj4t-59" style="edgeStyle=orthogonalEdgeStyle;rounded=1;orthogonalLoop=1;jettySize=auto;html=1;exitX=1;exitY=0.5;exitDx=0;exitDy=0;entryX=0;entryY=0.5;entryDx=0;entryDy=0;endArrow=none;endFill=0;sketch=1;" edge="1" parent="1" source="JQFdDf_bqG2a4VbHYj4t-57" target="JQFdDf_bqG2a4VbHYj4t-2">
          <mxGeometry relative="1" as="geometry" />
        </mxCell>
        <mxCell id="JQFdDf_bqG2a4VbHYj4t-57" value="has" style="rhombus;whiteSpace=wrap;html=1;sketch=1;rounded=1;" vertex="1" parent="1">
          <mxGeometry x="300" y="270" width="50" height="30" as="geometry" />
        </mxCell>
        <mxCell id="JQFdDf_bqG2a4VbHYj4t-62" style="edgeStyle=orthogonalEdgeStyle;rounded=1;orthogonalLoop=1;jettySize=auto;html=1;exitX=1;exitY=0.5;exitDx=0;exitDy=0;entryX=0.5;entryY=0;entryDx=0;entryDy=0;endArrow=none;endFill=0;sketch=1;" edge="1" parent="1" source="JQFdDf_bqG2a4VbHYj4t-60" target="JQFdDf_bqG2a4VbHYj4t-3">
          <mxGeometry relative="1" as="geometry" />
        </mxCell>
        <mxCell id="JQFdDf_bqG2a4VbHYj4t-60" value="rent" style="rhombus;whiteSpace=wrap;html=1;sketch=1;rounded=1;" vertex="1" parent="1">
          <mxGeometry x="510" y="330" width="50" height="30" as="geometry" />
        </mxCell>
        <mxCell id="JQFdDf_bqG2a4VbHYj4t-63" value="&lt;font style=&quot;font-size: 10px;&quot;&gt;&lt;b&gt;(1:M)&lt;/b&gt;&lt;/font&gt;" style="text;html=1;strokeColor=none;fillColor=none;align=center;verticalAlign=middle;whiteSpace=wrap;rounded=0;sketch=1;" vertex="1" parent="1">
          <mxGeometry x="295" y="290" width="60" height="30" as="geometry" />
        </mxCell>
        <mxCell id="JQFdDf_bqG2a4VbHYj4t-64" value="&lt;b&gt;&lt;font style=&quot;font-size: 10px;&quot;&gt;(N:M)&lt;/font&gt;&lt;/b&gt;" style="text;html=1;strokeColor=none;fillColor=none;align=center;verticalAlign=middle;whiteSpace=wrap;rounded=0;sketch=1;" vertex="1" parent="1">
          <mxGeometry x="505" y="350" width="60" height="30" as="geometry" />
        </mxCell>
      </root>
    </mxGraphModel>
  </diagram>
</mxfile>
